<svg width="179" height="40" viewBox="0 0 179 40" fill="none" xmlns="http://www.w3.org/2000/svg">
<path d="M34.1422 5.85781C30.3647 2.08031 25.3422 0 20 0C14.6578 0 9.63531 2.08031 5.85781 5.85781C2.08031 9.63531 0 14.6578 0 20C0 25.3422 2.08039 30.3646 5.85781 34.1422C9.63523 37.9198 14.6578 40 20 40C25.3422 40 30.3647 37.9197 34.1422 34.1422C37.9197 30.3647 40 25.3422 40 20C40 14.6578 37.9196 9.63539 34.1422 5.85781Z" fill="#33CC95"/>
<g clip-path="url(#clip0)">
<path d="M20.5714 8V33.1429" stroke="white" stroke-width="2" stroke-linecap="round" stroke-linejoin="round"/>
<path d="M26.2857 12.5714H17.7143C16.6534 12.5714 15.636 12.9929 14.8859 13.743C14.1357 14.4931 13.7143 15.5106 13.7143 16.5714C13.7143 17.6323 14.1357 18.6497 14.8859 19.3999C15.636 20.15 16.6534 20.5714 17.7143 20.5714H23.4286C24.4894 20.5714 25.5069 20.9929 26.257 21.743C27.0072 22.4932 27.4286 23.5106 27.4286 24.5714C27.4286 25.6323 27.0072 26.6497 26.257 27.3999C25.5069 28.15 24.4894 28.5714 23.4286 28.5714H13.7143" stroke="white" stroke-width="2" stroke-linecap="round" stroke-linejoin="round"/>
</g>
<path d="M75.7852 14.512C77.4172 14.512 78.7292 15.016 79.7212 16.024C80.7292 17.016 81.2332 18.408 81.2332 20.2V28H77.8732V20.656C77.8732 19.616 77.6092 18.824 77.0812 18.28C76.5532 17.72 75.8332 17.44 74.9212 17.44C74.0092 17.44 73.2812 17.72 72.7372 18.28C72.2092 18.824 71.9452 19.616 71.9452 20.656V28H68.5852V20.656C68.5852 19.616 68.3212 18.824 67.7932 18.28C67.2652 17.72 66.5452 17.44 65.6332 17.44C64.7052 17.44 63.9692 17.72 63.4252 18.28C62.8972 18.824 62.6332 19.616 62.6332 20.656V28H59.2732V14.704H62.6332V16.312C63.0652 15.752 63.6172 15.312 64.2892 14.992C64.9772 14.672 65.7292 14.512 66.5452 14.512C67.5852 14.512 68.5132 14.736 69.3292 15.184C70.1452 15.616 70.7772 16.24 71.2252 17.056C71.6572 16.288 72.2812 15.672 73.0972 15.208C73.9292 14.744 74.8252 14.512 75.7852 14.512ZM90.3256 28.216C89.0456 28.216 87.8936 27.936 86.8696 27.376C85.8456 26.8 85.0376 25.992 84.4456 24.952C83.8696 23.912 83.5816 22.712 83.5816 21.352C83.5816 19.992 83.8776 18.792 84.4696 17.752C85.0776 16.712 85.9016 15.912 86.9416 15.352C87.9816 14.776 89.1416 14.488 90.4216 14.488C91.7016 14.488 92.8616 14.776 93.9016 15.352C94.9416 15.912 95.7576 16.712 96.3496 17.752C96.9576 18.792 97.2616 19.992 97.2616 21.352C97.2616 22.712 96.9496 23.912 96.3256 24.952C95.7176 25.992 94.8856 26.8 93.8296 27.376C92.7896 27.936 91.6216 28.216 90.3256 28.216ZM90.3256 25.288C90.9336 25.288 91.5016 25.144 92.0296 24.856C92.5736 24.552 93.0056 24.104 93.3256 23.512C93.6456 22.92 93.8056 22.2 93.8056 21.352C93.8056 20.088 93.4696 19.12 92.7976 18.448C92.1416 17.76 91.3336 17.416 90.3736 17.416C89.4136 17.416 88.6056 17.76 87.9496 18.448C87.3096 19.12 86.9896 20.088 86.9896 21.352C86.9896 22.616 87.3016 23.592 87.9256 24.28C88.5656 24.952 89.3656 25.288 90.3256 25.288ZM107.094 14.512C108.678 14.512 109.958 15.016 110.934 16.024C111.91 17.016 112.398 18.408 112.398 20.2V28H109.038V20.656C109.038 19.6 108.774 18.792 108.246 18.232C107.718 17.656 106.998 17.368 106.086 17.368C105.158 17.368 104.422 17.656 103.878 18.232C103.35 18.792 103.086 19.6 103.086 20.656V28H99.7263V14.704H103.086V16.36C103.534 15.784 104.102 15.336 104.79 15.016C105.494 14.68 106.262 14.512 107.094 14.512ZM127.954 21.064C127.954 21.544 127.922 21.976 127.858 22.36H118.138C118.218 23.32 118.554 24.072 119.146 24.616C119.738 25.16 120.466 25.432 121.33 25.432C122.578 25.432 123.466 24.896 123.994 23.824H127.618C127.234 25.104 126.498 26.16 125.41 26.992C124.322 27.808 122.986 28.216 121.402 28.216C120.122 28.216 118.97 27.936 117.946 27.376C116.938 26.8 116.146 25.992 115.57 24.952C115.01 23.912 114.729 22.712 114.729 21.352C114.729 19.976 115.01 18.768 115.57 17.728C116.13 16.688 116.914 15.888 117.922 15.328C118.93 14.768 120.09 14.488 121.402 14.488C122.666 14.488 123.794 14.76 124.786 15.304C125.794 15.848 126.57 16.624 127.114 17.632C127.674 18.624 127.954 19.768 127.954 21.064ZM124.474 20.104C124.458 19.24 124.146 18.552 123.538 18.04C122.93 17.512 122.186 17.248 121.306 17.248C120.474 17.248 119.77 17.504 119.194 18.016C118.634 18.512 118.29 19.208 118.162 20.104H124.474ZM143.126 14.704L134.894 34.288H131.318L134.198 27.664L128.87 14.704H132.638L136.07 23.992L139.55 14.704H143.126ZM146.425 28.168C145.817 28.168 145.313 27.984 144.913 27.616C144.529 27.232 144.337 26.76 144.337 26.2C144.337 25.64 144.529 25.176 144.913 24.808C145.313 24.424 145.817 24.232 146.425 24.232C147.017 24.232 147.505 24.424 147.889 24.808C148.273 25.176 148.465 25.64 148.465 26.2C148.465 26.76 148.273 27.232 147.889 27.616C147.505 27.984 147.017 28.168 146.425 28.168ZM157.268 17.464H154.94V28H151.532V17.464H150.02V14.704H151.532V14.032C151.532 12.4 151.996 11.2 152.924 10.432C153.852 9.664 155.252 9.304 157.124 9.352V12.184C156.308 12.168 155.74 12.304 155.42 12.592C155.1 12.88 154.94 13.4 154.94 14.152V14.704H157.268V17.464ZM162.805 10.24V28H159.445V10.24H162.805ZM178.845 14.704L170.613 34.288H167.037L169.917 27.664L164.589 14.704H168.357L171.789 23.992L175.269 14.704H178.845Z" fill="white"/>
<defs>
<clipPath id="clip0">
<rect width="27.4286" height="27.4286" fill="white" transform="translate(6.85715 6.85714)"/>
</clipPath>
</defs>
</svg>
